<?xml version="1.0" encoding="utf-8"?>
<!-- Generator: Adobe Illustrator 23.1.1, SVG Export Plug-In . SVG Version: 6.00 Build 0)  -->
<svg version="1.1" id="Layer_1" xmlns="http://www.w3.org/2000/svg" xmlns:xlink="http://www.w3.org/1999/xlink" x="0px" y="0px"
	 viewBox="0 0 100 100" style="enable-background:new 0 0 100 100;" xml:space="preserve">
<style type="text/css">
	.st0{fill:#FFFFFF;}
</style>
<g>
	<path class="st0" d="M99.01,43.23C96.47,26.86,87.94,14.61,73.55,6.49c-6.22-3.51-12.98-5.38-20.11-5.85
		c-0.25-0.02-0.5-0.09-0.75-0.14c-1.79,0-3.57,0-5.36,0c-1.76,0.22-3.54,0.37-5.29,0.68C26.11,4.02,14.21,12.57,6.37,26.69
		c-3.41,6.14-5.24,12.79-5.72,19.8c-0.02,0.28-0.1,0.56-0.15,0.83c0,1.79,0,3.57,0,5.36c0.16,1.36,0.3,2.73,0.49,4.09
		C2.78,69.22,8.47,79.55,18,87.72c7.47,6.4,16.16,10.13,25.9,11.4c1.14,0.15,2.28,0.25,3.42,0.38c1.79,0,3.57,0,5.36,0
		c1.76-0.22,3.54-0.37,5.29-0.68c15.9-2.84,27.77-11.36,35.63-25.43c3.44-6.16,5.28-12.84,5.76-19.88c0.02-0.28,0.1-0.55,0.15-0.83
		c0-1.79,0-3.57,0-5.36C99.34,45.96,99.22,44.59,99.01,43.23z M50.11,91.37C27.23,91.38,8.63,72.83,8.63,50
		c0-22.76,18.56-41.34,41.31-41.36c22.81-0.03,41.4,18.53,41.43,41.33C91.4,72.71,72.82,91.35,50.11,91.37z"/>
	<path class="st0" d="M51.86,20.11c-1.44-0.96-2.28-0.96-3.72,0c-9.05,6.03-18.09,12.07-27.15,18.08c-1.12,0.75-1.61,1.69-1.6,3.02
		c0.03,5.87,0.03,11.74,0,17.62c-0.01,1.3,0.48,2.23,1.57,2.95c9.08,6.03,18.15,12.08,27.22,18.13c1.38,0.92,2.27,0.92,3.65,0
		c9.07-6.05,18.14-12.1,27.22-18.13c1.09-0.73,1.58-1.65,1.57-2.95c-0.03-2.94-0.01-5.87-0.01-8.81c0-2.96-0.02-5.93,0.01-8.89
		c0.01-1.26-0.47-2.17-1.54-2.88C70,32.21,60.93,26.16,51.86,20.11z M52.64,26.96c6.91,4.61,13.69,9.12,20.59,13.72
		c-3.02,2.02-5.93,3.98-8.86,5.91c-0.17,0.11-0.56,0.08-0.74-0.04c-3.53-2.33-7.04-4.68-10.55-7.05c-0.2-0.14-0.42-0.44-0.42-0.67
		C52.64,34.95,52.64,31.07,52.64,26.96z M47.31,26.99c0.02,0.43,0.05,0.71,0.05,0.98c0,3.48-0.01,6.97,0.02,10.45
		c0,0.59-0.18,0.93-0.67,1.26c-3.58,2.36-7.13,4.75-10.73,7.16c-3.04-2.04-6.08-4.07-9.2-6.16C33.63,36.11,40.41,31.59,47.31,26.99z
		 M24.71,45.64c2.19,1.46,4.3,2.87,6.53,4.36c-2.18,1.46-4.28,2.87-6.53,4.37C24.71,51.41,24.71,48.61,24.71,45.64z M47.36,73.04
		c-6.92-4.61-13.7-9.13-20.59-13.72c3.03-2.03,5.94-3.98,8.87-5.91c0.17-0.11,0.56-0.08,0.74,0.04c3.53,2.33,7.04,4.68,10.55,7.05
		c0.2,0.14,0.41,0.44,0.42,0.67C47.36,65.06,47.36,68.94,47.36,73.04z M50.37,55.95c-0.18,0.12-0.57,0.12-0.74,0
		c-2.95-1.94-5.88-3.91-8.92-5.94c0.58-0.39,1.09-0.74,1.6-1.08c2.37-1.58,4.72-3.17,7.11-4.73c0.25-0.16,0.75-0.27,0.95-0.13
		c2.96,1.93,5.89,3.9,8.93,5.94C56.26,52.04,53.32,54.01,50.37,55.95z M52.72,73c-0.03-0.34-0.07-0.58-0.07-0.81
		c0-3.57,0.01-7.14-0.02-10.71c0-0.53,0.19-0.83,0.62-1.11c3.41-2.26,6.8-4.53,10.19-6.81c0.34-0.23,0.6-0.42,1.06-0.1
		c2.78,1.9,5.59,3.76,8.38,5.63c0.09,0.06,0.17,0.15,0.3,0.27C66.38,63.89,59.61,68.4,52.72,73z M75.29,54.37
		c-2.21-1.48-4.32-2.89-6.53-4.36c2.19-1.46,4.29-2.87,6.53-4.37C75.29,48.61,75.29,51.41,75.29,54.37z"/>
</g>
</svg>
