<?xml version="1.0" encoding="utf-8"?>
<!-- Generator: Adobe Illustrator 23.1.1, SVG Export Plug-In . SVG Version: 6.00 Build 0)  -->
<svg version="1.1" id="Layer_1" xmlns="http://www.w3.org/2000/svg" xmlns:xlink="http://www.w3.org/1999/xlink" x="0px" y="0px"
	 viewBox="0 0 100 100" style="enable-background:new 0 0 100 100;" xml:space="preserve">
<style type="text/css">
	.st0{fill:#FFFFFF;}
</style>
<g>
	<path class="st0" d="M97.73,34.43c-0.01-0.03-0.01-0.07-0.02-0.1c-0.06-0.24-0.15-0.46-0.26-0.68c-0.02-0.04-0.04-0.08-0.06-0.12
		c-0.12-0.21-0.25-0.41-0.41-0.6c-0.02-0.03-0.05-0.05-0.08-0.08c-0.17-0.19-0.36-0.36-0.57-0.51c0,0-0.01-0.01-0.01-0.01L52,1.57
		c-1.2-0.83-2.79-0.83-3.99,0L3.68,32.33c0,0-0.01,0.01-0.01,0.01c-0.21,0.15-0.4,0.32-0.57,0.51c-0.03,0.03-0.05,0.05-0.08,0.08
		c-0.16,0.19-0.3,0.39-0.41,0.6c-0.02,0.04-0.04,0.08-0.06,0.12c-0.11,0.22-0.2,0.44-0.26,0.68c-0.01,0.03-0.01,0.07-0.02,0.1
		c-0.06,0.25-0.09,0.51-0.09,0.77v60.35c0,1.93,1.57,3.5,3.5,3.5h88.65c1.93,0,3.5-1.57,3.5-3.5V35.2
		C97.82,34.94,97.79,34.68,97.73,34.43z M50,8.7l38.19,26.5L50,61.7L11.81,35.2L50,8.7z"/>
</g>
</svg>
