<?xml version="1.0" encoding="utf-8"?>
<!-- Generator: Adobe Illustrator 23.1.1, SVG Export Plug-In . SVG Version: 6.00 Build 0)  -->
<svg version="1.1" id="Layer_1" xmlns="http://www.w3.org/2000/svg" xmlns:xlink="http://www.w3.org/1999/xlink" x="0px" y="0px"
	 viewBox="0 0 100 100" style="enable-background:new 0 0 100 100;" xml:space="preserve">
<style type="text/css">
	.st0{fill:#FFFFFF;}
</style>
<path class="st0" d="M60.95,73.38c3.17-1.14,6.63-2.06,9.81-3.58c13.68-6.56,17.73-24.16,8.39-36.15c-0.92-1.18-1.18-2.09-0.69-3.57
	c1.13-3.4,0.88-6.84-0.33-10.24c-0.78-2.2-2.24-3.07-4.3-2.19c-3.48,1.48-6.84,3.27-10.29,4.83c-1,0.45-2.24,0.97-3.23,0.76
	c-7.02-1.48-13.99-1.49-20.98,0.18c-0.82,0.2-2.06-0.18-2.71-0.74c-3.22-2.73-6.84-4.46-10.99-5.19c-1.79-0.32-2.86,0.22-3.55,1.92
	c-1.5,3.73-1.57,7.44-0.28,11.25c0.25,0.75,0.19,1.93-0.25,2.53c-11.35,15.65-5.07,33.77,13.53,38.89c1.45,0.4,2.9,0.78,4.41,1.18
	c-0.25,1.25-0.73,2.39-0.65,3.48c0.24,3.35-1.84,3.76-4.37,3.75c-4.45-0.03-8.15-1.43-10.78-5.33c-2.78-4.14-6.25-5.48-9.85-3.97
	c0.32,0.51,0.59,1.02,0.93,1.47c1.95,2.6,4.19,5.02,5.82,7.8c3.16,5.4,7.85,7.52,13.85,7.36c1.24-0.03,2.48-0.16,4.06-0.27
	c0,2.49,0.23,4.89-0.06,7.23c-0.31,2.54-2.66,3.6-5.33,2.53C15.44,90.21,4.52,77.34,1.6,58.51c-3.66-23.6,9.8-45.39,32.27-53.42
	C63.74-5.6,96.08,15.52,98.82,47.13c1.93,22.25-11.77,42.68-31.51,50c-3.79,1.4-5.79,0.01-5.83-4.07
	c-0.03-3.58,0.06-7.16-0.03-10.73C61.38,79.32,61.12,76.32,60.95,73.38z"/>
</svg>
