<?xml version="1.0" encoding="utf-8"?>
<!-- Generator: Adobe Illustrator 23.1.1, SVG Export Plug-In . SVG Version: 6.00 Build 0)  -->
<svg version="1.1" id="Layer_1" xmlns="http://www.w3.org/2000/svg" xmlns:xlink="http://www.w3.org/1999/xlink" x="0px" y="0px"
	 viewBox="0 0 100 100" style="enable-background:new 0 0 100 100;" xml:space="preserve">
<style type="text/css">
	.st0{fill:#FFFFFF;}
</style>
<g>
	<path class="st0" d="M28.65,2.5c14.2,0,28.41,0,42.61,0c1.12,0.14,2.24,0.26,3.35,0.43c8.68,1.33,15.31,5.68,19.56,13.44
		c2.45,4.47,3.3,9.34,3.3,14.39c0,12.57,0.02,25.15-0.01,37.72c0,2.04-0.07,4.11-0.36,6.13c-1.35,9.47-6.18,16.45-15.01,20.43
		c-3.99,1.79-8.22,2.47-12.58,2.47c-12.75-0.01-25.5,0.01-38.25-0.01c-1.69,0-3.4-0.03-5.07-0.25c-8.75-1.14-15.64-5.24-20.1-13
		c-2.54-4.42-3.55-9.26-3.55-14.32C2.53,56.74,2.51,43.56,2.55,30.39c0.01-1.97,0.18-3.95,0.47-5.9c1.59-10.69,9.41-18.95,20-21.13
		C24.88,2.97,26.77,2.78,28.65,2.5z M49.99,88.73c6.29,0,12.57,0.03,18.86-0.02c1.65-0.01,3.33-0.1,4.95-0.38
		c6.62-1.14,11.4-4.68,13.91-11.01c0.99-2.49,1.33-5.11,1.33-7.78c0-12.68,0.01-25.36-0.01-38.04c0-1.34-0.01-2.69-0.2-4.02
		c-0.94-6.62-3.99-11.78-10.36-14.52c-2.73-1.17-5.62-1.58-8.58-1.58c-13.07,0.01-26.14,0-39.2,0.01c-1.27,0-2.55,0.06-3.8,0.23
		C20.1,12.56,15.1,15.9,12.61,22.49c-1,2.64-1.31,5.41-1.31,8.22c0,12.5-0.01,25.01,0.01,37.51c0,1.48,0.02,2.97,0.19,4.44
		c0.83,7.06,4.2,12.25,11.09,14.78c2.62,0.96,5.34,1.29,8.11,1.29C37.13,88.73,43.56,88.73,49.99,88.73z"/>
	<path class="st0" d="M74.47,49.91C74.44,63.43,63.4,74.4,49.87,74.35C36.31,74.3,25.43,63.32,25.48,49.73
		c0.05-13.46,11.08-24.39,24.57-24.36C63.47,25.4,74.49,36.48,74.47,49.91z M49.95,65.53c8.62,0.03,15.73-7.06,15.74-15.67
		c0.01-8.54-7.07-15.66-15.63-15.71c-8.61-0.06-15.72,7.01-15.76,15.65C34.27,58.44,41.29,65.5,49.95,65.53z"/>
	<path class="st0" d="M75.36,30.3c-3.06-0.03-5.47-2.49-5.45-5.56c0.02-3.11,2.49-5.53,5.62-5.51c3.02,0.03,5.49,2.53,5.47,5.57
		C80.98,27.88,78.47,30.34,75.36,30.3z"/>
</g>
</svg>
