<?xml version="1.0" encoding="utf-8"?>
<!-- Generator: Adobe Illustrator 23.1.1, SVG Export Plug-In . SVG Version: 6.00 Build 0)  -->
<svg version="1.1" id="Layer_1" xmlns="http://www.w3.org/2000/svg" xmlns:xlink="http://www.w3.org/1999/xlink" x="0px" y="0px"
	 viewBox="0 0 200 100" style="enable-background:new 0 0 200 100;" xml:space="preserve">
<g>
	<path d="M44.83,64c1.92,1.07,3.76,2.03,5.54,3.09C56,70.45,61.09,74.56,66.3,78.5c4.07,3.08,8.27,6,12.52,8.84
		c1.55,1.04,3.39,1.64,5.09,2.46c0.45,0.21,0.9,0.43,1.29,0.73c0.69,0.52,1.26,1.14,1.07,2.11c-0.2,1.01-0.86,1.71-1.82,1.91
		c-0.85,0.18-1.8,0.23-2.65,0.06c-2.95-0.58-5.52-2.06-7.91-3.79c-5.44-3.94-10.83-7.96-16.22-11.98c-4.6-3.42-9.23-6.8-14.41-9.34
		c-0.33-0.16-0.68-0.3-1-0.49c-0.56-0.32-0.89-0.17-1.31,0.33c-3.39,4.07-6.7,8.21-10.27,12.11c-3.65,3.99-7.76,7.49-12.75,9.78
		c-3.6,1.66-7.24,2.13-10.92,0.22c-4.55-2.35-6.72-7.44-5.53-12.92c1.03-4.76,3.76-8.42,7.54-11.27c8.83-6.67,18.64-8.6,29.34-5.59
		c0.78,0.22,1.23,0.14,1.68-0.58c2.33-3.8,4.71-7.57,7.07-11.36c0.14-0.23,0.24-0.48,0.44-0.88c-0.48-0.04-0.82-0.08-1.17-0.09
		c-3.73-0.19-7.38-0.84-10.94-1.99c-5.15-1.65-9.34-4.66-12.67-8.88c-1.23-1.55-2.37-3.17-3.51-4.79c-0.25-0.36-0.39-0.85-0.44-1.29
		c-0.09-0.8,0.34-1.38,1.05-1.7c0.66-0.29,1.26-0.12,1.77,0.41c1.57,1.66,3.03,3.46,4.76,4.94c6.31,5.37,13.73,7.76,21.95,7.75
		c2.78,0,2.18,0.44,3.29-2.05c3.38-7.61,6.67-15.27,10.01-22.91c1.78-4.06,3.63-8.1,6.48-11.55c0.96-1.16,2.02-2.28,3.19-3.23
		c5.23-4.28,12.07-2.9,15.3,3.03c2.28,4.18,2.6,8.64,1.61,13.19c-2.11,9.62-7.68,16.85-15.87,22.12
		c-5.23,3.37-11.02,5.33-17.13,6.37c-0.71,0.12-1.12,0.41-1.5,1.04c-2.79,4.68-5.63,9.33-8.46,13.99C45.14,63.47,45,63.71,44.83,64z
		 M57.49,41.95c0.27,0.01,0.36,0.04,0.44,0.02c9.31-2.41,16.96-7.14,21.91-15.64c2.11-3.62,3.43-7.49,3.32-11.74
		c-0.06-2.4-0.64-4.67-2.23-6.56c-1.27-1.51-3.14-1.97-4.85-1.01c-1.11,0.63-2.12,1.51-2.99,2.45c-2.67,2.89-4.33,6.4-5.87,9.96
		c-2.47,5.68-4.84,11.4-7.28,17.09C59.17,38.31,58.34,40.07,57.49,41.95z M35.86,66.83c-0.39-0.12-0.65-0.22-0.91-0.28
		c-4.12-0.92-8.23-0.99-12.33,0.13c-5.19,1.42-9.81,3.8-13.29,8.04c-1.68,2.05-2.66,4.39-2.6,7.09c0.08,3.6,3.06,5.95,6.57,5.18
		c2.85-0.63,5.23-2.23,7.48-3.98c5.47-4.26,9.91-9.5,14.18-14.91C35.27,67.71,35.53,67.31,35.86,66.83z"/>
	<path d="M128.31,33.55c1.01-2.72,1.83-5.29,2.9-7.75c1.33-3.06,2.82-6.07,4.34-9.04c0.79-1.54,2.05-2.72,3.6-3.52
		c1.43-0.74,3,0.07,2.99,1.65c0,0.94-0.24,2.01-0.73,2.8c-4.31,7.09-7.11,14.77-9.17,22.76c-0.15,0.59-0.19,1.34,0.04,1.87
		c3.38,7.75,6.76,15.5,10.25,23.2c1.33,2.93,2.9,5.76,5.15,8.13c0.34,0.36,0.71,0.69,1.09,1.01c0.8,0.68,1.57,0.91,2.59,0.28
		c1.46-0.89,3.07-0.52,3.87,0.7c0.83,1.27,0.46,2.86-0.93,3.91c-2.38,1.81-5.06,1.95-7.64,0.38c-2.75-1.67-4.81-4.07-6.28-6.84
		c-2.65-5-5.11-10.11-7.59-15.21c-1-2.06-1.82-4.21-2.72-6.31c-0.11-0.25-0.23-0.48-0.55-0.73c-0.42,1.69-0.87,3.37-1.24,5.07
		c-2.07,9.45-5.7,18.33-10.13,26.88c-2.72,5.24-6.4,9.79-11.09,13.46c-2.87,2.25-6.17,3.24-9.72,3.55
		c-1.53,0.13-2.78-0.84-3.02-2.19c-0.26-1.42,0.58-2.73,2.11-3.15c0.89-0.25,1.82-0.36,2.73-0.53c1.62-0.3,3.06-0.98,4.36-1.98
		c4.98-3.83,8.38-8.87,11.14-14.44c4.59-9.29,7.56-19.1,9.77-29.18c0.4-1.84,0.97-3.65,1.4-5.49c0.11-0.46,0.17-1.04-0.03-1.43
		c-1.33-2.69-2.59-5.43-4.16-7.98c-2.47-4.02-6.21-5.8-10.93-5.55c-1.36,0.07-2.73,0.08-4.09,0.08c-0.98,0-1.86-0.27-2.25-1.31
		c-0.32-0.84,0.03-1.76,1-2.49c1.56-1.18,3.37-1.71,5.29-1.8c7.03-0.32,12.29,2.72,16.04,8.57
		C127.23,31.76,127.72,32.6,128.31,33.55z"/>
	<path d="M175.38,28.82c-1.1-1.06-2.29-1.91-3.1-3.04c-2.3-3.19-2.27-6.76-1.04-10.3c1.4-4.04,4.25-6.88,8.11-8.63
		c2.63-1.2,5.33-0.98,7.93,0.21c1.61,0.74,2.7,1.97,2.95,3.79c0.14,1.01-0.08,1.94-0.97,2.55c-0.87,0.6-1.77,0.44-2.63-0.06
		c-0.37-0.22-0.72-0.48-1.06-0.76c-1.31-1.08-2.81-1.29-4.26-0.53c-2.82,1.48-4.82,3.67-5.23,6.99c-0.08,0.64-0.07,1.31,0.05,1.94
		c0.47,2.46,3.08,3.76,5.39,2.73c0.53-0.24,1.09-0.46,1.66-0.56c1.19-0.19,2.28,0.4,2.79,1.41c0.54,1.06,0.35,2.29-0.54,3.16
		c-0.28,0.28-0.63,0.5-0.97,0.71c-5.34,3.26-8.53,7.99-9.56,14.15c-0.16,0.98-0.1,2.06,0.11,3.03c0.66,3.1,3.12,4.56,6.16,3.62
		c1.16-0.36,2.27-0.99,3.29-1.67c3.6-2.39,5.92-5.78,7.28-9.83c0.56-1.67,0.93-3.4,1.38-5.1c0.07-0.27,0.11-0.55,0.19-0.81
		c0.47-1.48,1.73-2.32,3.1-2.08c1.38,0.24,2.41,1.46,2.22,2.98c-0.22,1.74-0.58,3.49-1.08,5.17c-1.86,6.31-5.32,11.48-11.02,15
		c-2.85,1.76-5.89,2.6-9.23,1.89c-4.68-0.99-7.9-5.02-8.05-10.19c-0.13-4.28,1.2-8.18,3.38-11.81c0.7-1.17,1.55-2.24,2.33-3.35
		C175.14,29.17,175.31,28.92,175.38,28.82z"/>
	<path d="M97.13,34.83c0.96,0.29,2.3,0.5,3.44,1.1c0.74,0.39,1.31,1.28,1.73,2.07c0.44,0.82,0.16,1.71-0.51,2.38
		c-0.68,0.69-1.55,0.88-2.4,0.5c-2.23-1.02-4.23-0.38-6.03,0.9c-2.52,1.79-4.5,4.07-5.52,7.06c-0.2,0.58-0.32,1.2-0.36,1.81
		c-0.07,0.93,0.25,1.71,1.13,2.17c0.88,0.46,1.67,0.5,2.6-0.09c1.26-0.82,2.65-1.46,4.03-2.09c0.51-0.23,1.15-0.28,1.72-0.28
		c1.29,0.01,2.28,0.6,2.77,1.82c0.48,1.21,0.29,2.47-0.73,3.22c-1.38,1.01-2.87,2.04-4.48,2.54c-1.83,0.57-3.17,1.6-4.4,2.93
		c-2.36,2.57-4.19,5.45-4.94,8.91c-0.07,0.33-0.13,0.67-0.16,1.01c-0.23,2.65,1.35,4.41,4.01,4.49c1.65,0.05,3.11-0.54,4.46-1.39
		c4.31-2.68,7.34-6.41,9.03-11.21c0.12-0.35,0.25-0.7,0.43-1.03c0.7-1.26,2.05-1.81,3.31-1.37c1.22,0.43,2.08,1.7,1.72,3.04
		c-0.43,1.6-0.98,3.21-1.75,4.67c-2.82,5.33-6.81,9.51-12.44,11.9c-2.95,1.25-5.98,1.36-8.94,0.01c-4.08-1.87-6.08-6-5.26-10.55
		c0.75-4.17,2.65-7.78,5.33-10.99c0.52-0.62,0.54-0.9-0.13-1.44c-2.64-2.09-3.46-4.96-2.68-8.08c1.61-6.45,5.48-11.07,11.79-13.44
		C94.81,35.09,95.8,35.06,97.13,34.83z"/>
	<path d="M158.25,36.51c-0.07,6.9-0.12,13.81-0.22,20.71c-0.01,0.73-0.11,1.5-0.37,2.17c-0.44,1.11-1.45,1.63-2.61,1.53
		c-1.18-0.1-1.97-0.76-2.3-1.86c-0.19-0.64-0.24-1.34-0.23-2.01c0.24-10.43,0.49-20.86,0.76-31.3c0.09-3.44,0.2-6.87,0.37-10.3
		c0.04-0.72,0.25-1.47,0.57-2.12c0.46-0.93,1.32-1.38,2.38-1.31c1.1,0.07,1.87,0.68,2.23,1.69c0.21,0.57,0.32,1.21,0.3,1.82
		c-0.21,7-0.45,13.99-0.68,20.98C158.37,36.51,158.31,36.51,158.25,36.51z"/>
</g>
</svg>
