<?xml version="1.0" encoding="utf-8"?>
<!-- Generator: Adobe Illustrator 23.1.1, SVG Export Plug-In . SVG Version: 6.00 Build 0)  -->
<svg version="1.1" id="Layer_1" xmlns="http://www.w3.org/2000/svg" xmlns:xlink="http://www.w3.org/1999/xlink" x="0px" y="0px"
	 viewBox="0 0 100 100" style="enable-background:new 0 0 100 100;" xml:space="preserve">
<style type="text/css">
	.st0{fill:#FFFFFF;}
</style>
<path class="st0" d="M97.5,10.85c0,26.12,0,52.24,0,78.36c-0.08,0.23-0.21,0.45-0.23,0.68c-0.32,2.93-1.82,5.05-4.35,6.5
	c-1.5,0.86-3.15,1.08-4.82,1.09c-6.37,0.03-12.75,0.01-19.12,0.01c-19.03,0-38.06,0-57.09-0.01c-2.14,0-4.16-0.42-5.93-1.75
	c-2.53-1.92-3.46-4.57-3.46-7.62c0-24.79,0-49.57,0-74.36c0-1.17,0.07-2.34,0.16-3.51c0.26-3.71,3.08-6.65,6.7-7.46
	c0.47-0.11,0.95-0.19,1.42-0.29c26.12,0,52.24,0,78.36,0c0.26,0.08,0.51,0.22,0.77,0.24c3.52,0.31,6.8,3.35,7.32,6.8
	C97.3,9.98,97.41,10.41,97.5,10.85z M54.68,42.86c0-0.87,0.01-1.88,0-2.89c-0.02-1.65-1.01-2.64-2.67-2.64c-3.43-0.01-6.87,0-10.3,0
	c-1.99,0-2.95,0.95-2.95,2.95c0,14.67,0,29.33,0,44c0,1.96,1.01,2.96,2.97,2.96c3.34,0.01,6.68,0.01,10.02,0
	c1.97,0,2.92-0.98,2.93-2.98c0-7.49,0-14.97,0-22.46c0-2.48,0.53-4.83,1.61-7.07c1.51-3.12,4.35-4.73,7.86-4.42
	c3.34,0.29,5.72,2.2,6.51,5.64c0.48,2.08,0.7,4.27,0.72,6.41c0.08,7.33,0.03,14.66,0.03,22c0,1.97,0.92,2.88,2.89,2.89
	c3.43,0.01,6.87,0,10.3,0c2.07,0,3.08-0.98,3.08-3.06c0-7.8,0.03-15.59-0.04-23.39c-0.04-3.83-0.23-7.66-1.24-11.39
	c-1.32-4.88-3.75-8.95-8.53-11.17c-3.64-1.69-7.52-1.88-11.44-1.52c-2.83,0.26-5.57,0.93-7.88,2.67
	C57.16,40.42,55.95,41.7,54.68,42.86z M16.09,62.25c0,7.3,0,14.6,0,21.91c0,2.06,1,3.07,3.07,3.08c3.09,0.01,6.19,0,9.28,0
	c2.65,0,3.57-0.92,3.57-3.56c0-12.47,0-24.94,0-37.41c0-1.95,0.01-3.9,0-5.85c-0.01-2.05-1.05-3.09-3.07-3.09c-3.28,0-6.56,0-9.84,0
	c-2.02,0-3,0.98-3,3.01C16.09,47.65,16.09,54.95,16.09,62.25z M34.25,23.18c0.01-5.67-4.55-10.31-10.18-10.34
	c-5.62-0.03-10.33,4.56-10.3,10.23c0.03,5.91,4.6,10.22,10.24,10.29C29.59,33.43,34.23,28.75,34.25,23.18z"/>
</svg>
