<?xml version="1.0" encoding="utf-8"?>
<!-- Generator: Adobe Illustrator 23.1.1, SVG Export Plug-In . SVG Version: 6.00 Build 0)  -->
<svg version="1.1" id="Layer_1" xmlns="http://www.w3.org/2000/svg" xmlns:xlink="http://www.w3.org/1999/xlink" x="0px" y="0px"
	 viewBox="0 0 100 100" style="enable-background:new 0 0 100 100;" xml:space="preserve">
<style type="text/css">
	.st0{fill:#FFFFFF;}
</style>
<g>
	<path class="st0" d="M91.55,28.42c-0.17-0.22-0.36-0.41-0.58-0.58c-0.06-0.06-0.1-0.14-0.16-0.2L68.36,5.03
		C67.67,4.34,66.77,4,65.86,4c-0.01,0-0.01,0-0.02,0H10.81c-1.93,0-3.5,1.57-3.5,3.5v85c0,1.93,1.57,3.5,3.5,3.5h78.39
		c1.93,0,3.5-1.57,3.5-3.5V31.01C92.69,29.98,92.25,29.06,91.55,28.42z M69.34,15.96l11.02,11.1H69.34V15.96z M85.69,89H14.31V11
		h48.04v19.56c0,1.93,1.57,3.5,3.5,3.5h19.85V89z"/>
	<path class="st0" d="M21.57,58.97c0,1.66,1.34,3,3,3H77.1c1.66,0,3-1.34,3-3s-1.34-3-3-3H24.57
		C22.91,55.97,21.57,57.32,21.57,58.97z"/>
	<path class="st0" d="M24.57,45.97h28.74c1.66,0,3-1.34,3-3s-1.34-3-3-3H24.57c-1.66,0-3,1.34-3,3S22.91,45.97,24.57,45.97z"/>
	<path class="st0" d="M24.57,29.97h28.74c1.66,0,3-1.34,3-3s-1.34-3-3-3H24.57c-1.66,0-3,1.34-3,3S22.91,29.97,24.57,29.97z"/>
	<path class="st0" d="M77.1,72.25H24.57c-1.66,0-3,1.34-3,3s1.34,3,3,3H77.1c1.66,0,3-1.34,3-3S78.76,72.25,77.1,72.25z"/>
</g>
</svg>
